<svg width="64" height="56" viewBox="0 0 64 56" fill="none" xmlns="http://www.w3.org/2000/svg">
<g filter="url(#filter0_i_270_2294)">
<rect width="63.3333" height="55.3333" rx="27.6667" fill="#1F1F1F"/>
<rect x="0.5" y="0.5" width="62.3333" height="54.3333" rx="27.1667" stroke="white" stroke-opacity="0.05"/>
<path d="M39.6667 30.3333V26.3333H35.6667V23.6667H39.6667V19.6667H42.3333V23.6667H46.3333V26.3333H42.3333V30.3333H39.6667ZM27.6667 27.6667C26.2 27.6667 24.9444 27.1444 23.9 26.1C22.8556 25.0556 22.3333 23.8 22.3333 22.3333C22.3333 20.8667 22.8556 19.6111 23.9 18.5667C24.9444 17.5222 26.2 17 27.6667 17C29.1333 17 30.3889 17.5222 31.4333 18.5667C32.4778 19.6111 33 20.8667 33 22.3333C33 23.8 32.4778 25.0556 31.4333 26.1C30.3889 27.1444 29.1333 27.6667 27.6667 27.6667ZM17 38.3333V34.6C17 33.8444 17.1944 33.15 17.5833 32.5167C17.9722 31.8833 18.4889 31.4 19.1333 31.0667C20.5111 30.3778 21.9111 29.8611 23.3333 29.5167C24.7556 29.1722 26.2 29 27.6667 29C29.1333 29 30.5778 29.1722 32 29.5167C33.4222 29.8611 34.8222 30.3778 36.2 31.0667C36.8444 31.4 37.3611 31.8833 37.75 32.5167C38.1389 33.15 38.3333 33.8444 38.3333 34.6V38.3333H17ZM19.6667 35.6667H35.6667V34.6C35.6667 34.3556 35.6056 34.1333 35.4833 33.9333C35.3611 33.7333 35.2 33.5778 35 33.4667C33.8 32.8667 32.5889 32.4167 31.3667 32.1167C30.1444 31.8167 28.9111 31.6667 27.6667 31.6667C26.4222 31.6667 25.1889 31.8167 23.9667 32.1167C22.7444 32.4167 21.5333 32.8667 20.3333 33.4667C20.1333 33.5778 19.9722 33.7333 19.85 33.9333C19.7278 34.1333 19.6667 34.3556 19.6667 34.6V35.6667ZM27.6667 25C28.4 25 29.0278 24.7389 29.55 24.2167C30.0722 23.6944 30.3333 23.0667 30.3333 22.3333C30.3333 21.6 30.0722 20.9722 29.55 20.45C29.0278 19.9278 28.4 19.6667 27.6667 19.6667C26.9333 19.6667 26.3056 19.9278 25.7833 20.45C25.2611 20.9722 25 21.6 25 22.3333C25 23.0667 25.2611 23.6944 25.7833 24.2167C26.3056 24.7389 26.9333 25 27.6667 25Z" fill="white"/>
</g>
<defs>
<filter id="filter0_i_270_2294" x="0" y="0" width="63.3333" height="57.3333" filterUnits="userSpaceOnUse" color-interpolation-filters="sRGB">
<feFlood flood-opacity="0" result="BackgroundImageFix"/>
<feBlend mode="normal" in="SourceGraphic" in2="BackgroundImageFix" result="shape"/>
<feColorMatrix in="SourceAlpha" type="matrix" values="0 0 0 0 0 0 0 0 0 0 0 0 0 0 0 0 0 0 127 0" result="hardAlpha"/>
<feMorphology radius="1" operator="erode" in="SourceAlpha" result="effect1_innerShadow_270_2294"/>
<feOffset dy="2"/>
<feGaussianBlur stdDeviation="2"/>
<feComposite in2="hardAlpha" operator="arithmetic" k2="-1" k3="1"/>
<feColorMatrix type="matrix" values="0 0 0 0 0 0 0 0 0 0 0 0 0 0 0 0 0 0 0.05 0"/>
<feBlend mode="normal" in2="shape" result="effect1_innerShadow_270_2294"/>
</filter>
</defs>
</svg>
